<svg xmlns="http://www.w3.org/2000/svg" width="933.333" height="933.333" viewBox="0 0 700 700" preserveAspectRatio="xMidYMid meet" xmlns:v="https://vecta.io/nano"><path d="M245.2 1.6C236.1 4 230 7.1 213 18.2L190 33l-26.1 16.8-41.4 26.7c-30.3 19.4-38.7 28-44.9 45.8-2.1 6.2-2.1 6.2-2.3 152.2l-.3 146 2.4 7.5c2.5 8.2 5.4 14.8 7.4 16.8.6.7 1.2 1.7 1.2 2.2s2.9 3.8 6.5 7.4c6.7 6.8 11.8 10 32 20.6l15 8c1.7 1 7.1 3.9 12 6.5l39.5 21.2c3 1.7 10.5 5.6 16.5 8.8l15.2 8.1 4.2 2.3 13.8-8.6 93.1-57.7c5.1-3.2 9.2-5.9 9-6.1-.5-.4-32.9-17.8-67.3-36l-14-7.5-16-8.6-19-10.1-14.3-7.5-6.3-3.3.3-106 .4-105.9 52.9-32.3 74.8-45.6 24.5-14.9 5.2-3.1c5.9-3.3 21.6-13.1 22.8-14.2 1.4-1.3.6-1.8-23.3-14.5L344 37.5 324.5 27l-13-7C291.9 9.4 280.7 3.9 276 2.5c-7.3-2.3-23.9-2.7-30.8-.9zM405 79.2l-5.5 3.5c-1.1.6-9.9 6-19.5 11.9l-42 25.7-28 17.2c-10.1 6.5-15.1 9.5-16 9.5-3 0 .6 2.3 14.1 8.9 14.9 7.4 15 7.5 17.7 5.8 1.5-1 6.1-3.8 10.2-6.3 4.1-2.4 13.8-8.3 21.5-13.1l16.7-10.2c20.9-12.4 64.5-39.7 64.3-40.2-.4-.6-28.7-14.9-29.6-14.9-.2 0-2 1-3.9 2.2zm-7.5 68L342 181.3l-26.9 16.3c-2.3 1.2-1.9 1.5 8 6.5l15.5 7.7 5.1 2.3 10.9-6.7L378 193l22-13.4 17.1-10.4 24.7-15.2c9.5-5.7 17.2-10.7 17.2-11 0-.6-28.6-15-29.7-15-.5.1-14.7 8.7-31.8 19.2zm51.5 31l-21 13.1-10 6.2-42 26.1-26.5 17c0 .6 4.2 3 21 11.9l12 6.5c.6.4 6.6 3.6 13.5 7.2l17 9c2.5 1.4 9.3 5 15.1 8.1l15 8 15.4 8.2 19 10.1 8 4.2-.2 70.9-.2 106-.1 35.2-28.2 17.2-31 18.8L355 605l-46.9 28.6c-5.2 3.2-5.3 3.2-3 4.5 3.8 1.9 12.8 6.8 20.4 10.9l56 30 17.7 9.6c12.2 6.7 17.9 9.1 23.8 10.2 8.1 1.5 19.6.8 26.3-1.6 6.8-2.5 10.1-4.5 59.9-36.7l90.9-59.7c4-3.5 9.6-11.4 11.9-16.5 4.8-10.9 4.6-5.5 4.5-163.8l-.2-149-2.1-6.7c-2.3-6.7-6.3-13.6-11.7-19.6-3.6-4.1-10.2-8.4-23-15.2l-15.5-8.3-25-13.4-21-11.3-20-10.8-17-9c-5.8-3-11.4-6.1-12.5-6.9-1.1-.7-2.6-1.3-3.5-1.3-.8 0-8 4.1-16 9.2zm-91.1 299.3l-7.9 4.8c-1.4.7-8.3 5-15.5 9.4L281 524.3c-.8.4-6.4 3.9-12.5 7.7l-15.7 9.7c-2.7 1.6-4.8 3-4.8 3.3 0 1.1 29.1 15.2 30.4 14.7.7-.3 11.2-6.6 23.2-14l81.1-49.6c5.7-3.5 10.1-6.6 9.8-7.1-.5-.8-23.2-12.6-27.1-14-1.6-.6-3.5 0-7.5 2.5zm5.2 60c-11.2 6.9-20.7 12.5-21.1 12.5a1.3 1.3 0 0 0-1.2.8c-.1.4-4.1 3-8.8 5.8l-62.7 38.7c-1 1 1.7 2.8 13.6 8.7l14.9 7.3 7.1-4.4 8.9-5.4 9.7-5.9 16.5-10.1 30.5-18.7 32.3-19.7c5.6-3.5 10.2-6.6 10.2-7 0-.5-28.3-15.1-29.3-15.1-.2 0-9.5 5.6-20.6 12.5z"/></svg>